<mxfile host="app.diagrams.net" modified="2023-06-10T03:09:28.680Z" agent="Mozilla/5.0 (Windows NT 10.0; Win64; x64) AppleWebKit/537.36 (KHTML, like Gecko) Chrome/114.0.0.0 Safari/537.36" etag="2tMEP5XLo6u3x9cSarU9" version="21.3.7" type="device">
  <diagram id="pVGUHmwH1eOQDIXKJJXV" name="Página-1">
    <mxGraphModel dx="2048" dy="620" grid="1" gridSize="10" guides="1" tooltips="1" connect="1" arrows="1" fold="1" page="1" pageScale="1" pageWidth="827" pageHeight="1169" math="0" shadow="0">
      <root>
        <mxCell id="0" />
        <mxCell id="1" parent="0" />
        <mxCell id="sEXCbgPRiS-1n-y_4f8X-28" value="Enable" style="edgeStyle=orthogonalEdgeStyle;rounded=0;orthogonalLoop=1;jettySize=auto;html=1;exitX=1;exitY=0.25;exitDx=0;exitDy=0;entryX=0;entryY=0.5;entryDx=0;entryDy=0;" edge="1" parent="1" source="sY_ADiLvE9_qvQkNk1Ue-1" target="sY_ADiLvE9_qvQkNk1Ue-2">
          <mxGeometry x="0.0423" relative="1" as="geometry">
            <Array as="points">
              <mxPoint x="290" y="110" />
              <mxPoint x="290" y="110" />
            </Array>
            <mxPoint as="offset" />
          </mxGeometry>
        </mxCell>
        <mxCell id="sEXCbgPRiS-1n-y_4f8X-30" style="edgeStyle=orthogonalEdgeStyle;rounded=0;orthogonalLoop=1;jettySize=auto;html=1;exitX=1;exitY=0.75;exitDx=0;exitDy=0;entryX=0;entryY=0.75;entryDx=0;entryDy=0;" edge="1" parent="1" source="sY_ADiLvE9_qvQkNk1Ue-1" target="sY_ADiLvE9_qvQkNk1Ue-4">
          <mxGeometry relative="1" as="geometry" />
        </mxCell>
        <mxCell id="sEXCbgPRiS-1n-y_4f8X-31" value="Modo" style="edgeLabel;html=1;align=center;verticalAlign=middle;resizable=0;points=[];" vertex="1" connectable="0" parent="sEXCbgPRiS-1n-y_4f8X-30">
          <mxGeometry x="-0.1829" relative="1" as="geometry">
            <mxPoint x="38" as="offset" />
          </mxGeometry>
        </mxCell>
        <mxCell id="sY_ADiLvE9_qvQkNk1Ue-1" value="Interface de Entrada" style="rounded=0;whiteSpace=wrap;html=1;" parent="1" vertex="1">
          <mxGeometry x="40" y="80" width="160" height="120" as="geometry" />
        </mxCell>
        <mxCell id="sEXCbgPRiS-1n-y_4f8X-29" value="Pulso" style="edgeStyle=orthogonalEdgeStyle;rounded=0;orthogonalLoop=1;jettySize=auto;html=1;entryX=0;entryY=0.25;entryDx=0;entryDy=0;" edge="1" parent="1" source="sY_ADiLvE9_qvQkNk1Ue-2" target="sY_ADiLvE9_qvQkNk1Ue-4">
          <mxGeometry relative="1" as="geometry" />
        </mxCell>
        <mxCell id="sY_ADiLvE9_qvQkNk1Ue-2" value="Oscilador Customizado" style="rounded=0;whiteSpace=wrap;html=1;" parent="1" vertex="1">
          <mxGeometry x="360" y="80" width="120" height="60" as="geometry" />
        </mxCell>
        <mxCell id="sEXCbgPRiS-1n-y_4f8X-45" style="edgeStyle=orthogonalEdgeStyle;rounded=0;orthogonalLoop=1;jettySize=auto;html=1;entryX=1;entryY=0.5;entryDx=0;entryDy=0;" edge="1" parent="1" source="sY_ADiLvE9_qvQkNk1Ue-4" target="sEXCbgPRiS-1n-y_4f8X-50">
          <mxGeometry relative="1" as="geometry">
            <mxPoint x="360" y="360" as="targetPoint" />
            <Array as="points">
              <mxPoint x="720" y="320" />
            </Array>
          </mxGeometry>
        </mxCell>
        <mxCell id="sEXCbgPRiS-1n-y_4f8X-60" style="edgeStyle=orthogonalEdgeStyle;rounded=0;orthogonalLoop=1;jettySize=auto;html=1;entryX=1;entryY=0.5;entryDx=0;entryDy=0;" edge="1" parent="1" source="sY_ADiLvE9_qvQkNk1Ue-4" target="sEXCbgPRiS-1n-y_4f8X-47">
          <mxGeometry relative="1" as="geometry">
            <Array as="points">
              <mxPoint x="720" y="480" />
            </Array>
          </mxGeometry>
        </mxCell>
        <mxCell id="sEXCbgPRiS-1n-y_4f8X-61" style="edgeStyle=orthogonalEdgeStyle;rounded=0;orthogonalLoop=1;jettySize=auto;html=1;entryX=1;entryY=0.5;entryDx=0;entryDy=0;" edge="1" parent="1" source="sY_ADiLvE9_qvQkNk1Ue-4" target="sEXCbgPRiS-1n-y_4f8X-57">
          <mxGeometry relative="1" as="geometry">
            <Array as="points">
              <mxPoint x="720" y="560" />
            </Array>
          </mxGeometry>
        </mxCell>
        <mxCell id="sY_ADiLvE9_qvQkNk1Ue-4" value="Contador MOD100" style="rounded=0;whiteSpace=wrap;html=1;" parent="1" vertex="1">
          <mxGeometry x="640" y="80" width="160" height="120" as="geometry" />
        </mxCell>
        <mxCell id="sY_ADiLvE9_qvQkNk1Ue-10" style="edgeStyle=orthogonalEdgeStyle;rounded=0;orthogonalLoop=1;jettySize=auto;html=1;exitX=1;exitY=0.5;exitDx=0;exitDy=0;entryX=0;entryY=0.25;entryDx=0;entryDy=0;" parent="1" source="sY_ADiLvE9_qvQkNk1Ue-8" target="sY_ADiLvE9_qvQkNk1Ue-1" edge="1">
          <mxGeometry relative="1" as="geometry" />
        </mxCell>
        <mxCell id="sY_ADiLvE9_qvQkNk1Ue-8" value="BTN&lt;br&gt;MAIS" style="ellipse;whiteSpace=wrap;html=1;" parent="1" vertex="1">
          <mxGeometry x="-80" y="90" width="40" height="40" as="geometry" />
        </mxCell>
        <mxCell id="sY_ADiLvE9_qvQkNk1Ue-11" style="edgeStyle=orthogonalEdgeStyle;rounded=0;orthogonalLoop=1;jettySize=auto;html=1;entryX=0;entryY=0.75;entryDx=0;entryDy=0;" parent="1" source="sY_ADiLvE9_qvQkNk1Ue-9" target="sY_ADiLvE9_qvQkNk1Ue-1" edge="1">
          <mxGeometry relative="1" as="geometry" />
        </mxCell>
        <mxCell id="sY_ADiLvE9_qvQkNk1Ue-9" value="BTN&lt;br&gt;MENOS" style="ellipse;whiteSpace=wrap;html=1;" parent="1" vertex="1">
          <mxGeometry x="-80" y="150" width="40" height="40" as="geometry" />
        </mxCell>
        <mxCell id="sEXCbgPRiS-1n-y_4f8X-7" style="edgeStyle=orthogonalEdgeStyle;rounded=0;orthogonalLoop=1;jettySize=auto;html=1;entryX=1;entryY=0.5;entryDx=0;entryDy=0;exitX=0;exitY=0.5;exitDx=0;exitDy=0;" edge="1" parent="1" source="sEXCbgPRiS-1n-y_4f8X-39" target="sEXCbgPRiS-1n-y_4f8X-1">
          <mxGeometry relative="1" as="geometry">
            <mxPoint x="40" y="290" as="sourcePoint" />
          </mxGeometry>
        </mxCell>
        <mxCell id="sEXCbgPRiS-1n-y_4f8X-1" value="Display&lt;br&gt;LS" style="ellipse;whiteSpace=wrap;html=1;aspect=fixed;" vertex="1" parent="1">
          <mxGeometry x="-80" y="260" width="40" height="40" as="geometry" />
        </mxCell>
        <mxCell id="sEXCbgPRiS-1n-y_4f8X-3" value="Display&lt;br&gt;MS" style="ellipse;whiteSpace=wrap;html=1;aspect=fixed;" vertex="1" parent="1">
          <mxGeometry x="-80" y="340" width="40" height="40" as="geometry" />
        </mxCell>
        <mxCell id="sEXCbgPRiS-1n-y_4f8X-11" value="LED" style="ellipse;whiteSpace=wrap;html=1;aspect=fixed;" vertex="1" parent="1">
          <mxGeometry x="-80" y="500" width="40" height="40" as="geometry" />
        </mxCell>
        <mxCell id="sEXCbgPRiS-1n-y_4f8X-39" value="Decodificador BCD" style="rounded=0;whiteSpace=wrap;html=1;" vertex="1" parent="1">
          <mxGeometry x="40" y="240" width="160" height="80" as="geometry" />
        </mxCell>
        <mxCell id="sEXCbgPRiS-1n-y_4f8X-42" style="edgeStyle=orthogonalEdgeStyle;rounded=0;orthogonalLoop=1;jettySize=auto;html=1;entryX=1;entryY=0.5;entryDx=0;entryDy=0;" edge="1" parent="1" source="sEXCbgPRiS-1n-y_4f8X-41" target="sEXCbgPRiS-1n-y_4f8X-3">
          <mxGeometry relative="1" as="geometry" />
        </mxCell>
        <mxCell id="sEXCbgPRiS-1n-y_4f8X-41" value="Decodificador BCD" style="rounded=0;whiteSpace=wrap;html=1;" vertex="1" parent="1">
          <mxGeometry x="40" y="320" width="160" height="80" as="geometry" />
        </mxCell>
        <mxCell id="sEXCbgPRiS-1n-y_4f8X-44" style="edgeStyle=orthogonalEdgeStyle;rounded=0;orthogonalLoop=1;jettySize=auto;html=1;entryX=1;entryY=0.5;entryDx=0;entryDy=0;" edge="1" parent="1" source="sEXCbgPRiS-1n-y_4f8X-43" target="sEXCbgPRiS-1n-y_4f8X-11">
          <mxGeometry relative="1" as="geometry" />
        </mxCell>
        <mxCell id="sEXCbgPRiS-1n-y_4f8X-43" value="Circuito PWM" style="rounded=0;whiteSpace=wrap;html=1;" vertex="1" parent="1">
          <mxGeometry x="40" y="440" width="160" height="160" as="geometry" />
        </mxCell>
        <mxCell id="sEXCbgPRiS-1n-y_4f8X-56" value="FREQUENCIA" style="edgeStyle=orthogonalEdgeStyle;rounded=0;orthogonalLoop=1;jettySize=auto;html=1;entryX=1;entryY=0.25;entryDx=0;entryDy=0;" edge="1" parent="1" source="sEXCbgPRiS-1n-y_4f8X-47" target="sEXCbgPRiS-1n-y_4f8X-43">
          <mxGeometry x="-0.0448" relative="1" as="geometry">
            <mxPoint as="offset" />
          </mxGeometry>
        </mxCell>
        <mxCell id="sEXCbgPRiS-1n-y_4f8X-47" value="Divisor de Frequência" style="rounded=0;whiteSpace=wrap;html=1;" vertex="1" parent="1">
          <mxGeometry x="334" y="440" width="160" height="80" as="geometry" />
        </mxCell>
        <mxCell id="sEXCbgPRiS-1n-y_4f8X-54" value="LS" style="edgeStyle=orthogonalEdgeStyle;rounded=0;orthogonalLoop=1;jettySize=auto;html=1;entryX=1;entryY=0.5;entryDx=0;entryDy=0;exitX=0;exitY=0.25;exitDx=0;exitDy=0;" edge="1" parent="1" source="sEXCbgPRiS-1n-y_4f8X-50" target="sEXCbgPRiS-1n-y_4f8X-39">
          <mxGeometry relative="1" as="geometry" />
        </mxCell>
        <mxCell id="sEXCbgPRiS-1n-y_4f8X-55" value="MS" style="edgeStyle=orthogonalEdgeStyle;rounded=0;orthogonalLoop=1;jettySize=auto;html=1;entryX=1;entryY=0.5;entryDx=0;entryDy=0;exitX=0;exitY=0.75;exitDx=0;exitDy=0;" edge="1" parent="1" source="sEXCbgPRiS-1n-y_4f8X-50" target="sEXCbgPRiS-1n-y_4f8X-41">
          <mxGeometry relative="1" as="geometry" />
        </mxCell>
        <mxCell id="sEXCbgPRiS-1n-y_4f8X-50" value="Split&amp;nbsp; LS MS" style="rounded=0;whiteSpace=wrap;html=1;" vertex="1" parent="1">
          <mxGeometry x="334" y="240" width="160" height="160" as="geometry" />
        </mxCell>
        <mxCell id="sEXCbgPRiS-1n-y_4f8X-58" style="edgeStyle=orthogonalEdgeStyle;rounded=0;orthogonalLoop=1;jettySize=auto;html=1;entryX=1;entryY=0.75;entryDx=0;entryDy=0;" edge="1" parent="1" source="sEXCbgPRiS-1n-y_4f8X-57" target="sEXCbgPRiS-1n-y_4f8X-43">
          <mxGeometry relative="1" as="geometry" />
        </mxCell>
        <mxCell id="sEXCbgPRiS-1n-y_4f8X-59" value="TON" style="edgeLabel;html=1;align=center;verticalAlign=middle;resizable=0;points=[];" vertex="1" connectable="0" parent="sEXCbgPRiS-1n-y_4f8X-58">
          <mxGeometry x="-0.1592" relative="1" as="geometry">
            <mxPoint x="-8" as="offset" />
          </mxGeometry>
        </mxCell>
        <mxCell id="sEXCbgPRiS-1n-y_4f8X-57" value="Controlador de Ciclo de Trabalho" style="rounded=0;whiteSpace=wrap;html=1;" vertex="1" parent="1">
          <mxGeometry x="334" y="520" width="160" height="80" as="geometry" />
        </mxCell>
      </root>
    </mxGraphModel>
  </diagram>
</mxfile>
